<mxfile host="app.diagrams.net" modified="2021-06-08T06:17:38.979Z" agent="5.0 (Windows)" etag="gPRPaIJ9rqHEx881iDzc" version="14.7.6" type="github">
  <diagram id="P1BC1emLwwbueG_iq3B5" name="Page-1">
    <mxGraphModel dx="2150" dy="1298" grid="1" gridSize="10" guides="1" tooltips="1" connect="1" arrows="1" fold="1" page="1" pageScale="1" pageWidth="827" pageHeight="1169" math="0" shadow="0">
      <root>
        <mxCell id="0" />
        <mxCell id="1" parent="0" />
        <mxCell id="BR0gpg7OfZkvVmH7d89o-99" style="edgeStyle=orthogonalEdgeStyle;rounded=0;orthogonalLoop=1;jettySize=auto;html=1;fontColor=#FF0000;" edge="1" parent="1" source="BR0gpg7OfZkvVmH7d89o-2">
          <mxGeometry relative="1" as="geometry">
            <mxPoint x="240" y="40" as="targetPoint" />
          </mxGeometry>
        </mxCell>
        <mxCell id="BR0gpg7OfZkvVmH7d89o-2" value="&lt;div&gt;Production des culots cellulaires&lt;/div&gt;0.5-5 millions de cellules" style="rounded=0;whiteSpace=wrap;html=1;" vertex="1" parent="1">
          <mxGeometry x="30" y="10" width="170" height="60" as="geometry" />
        </mxCell>
        <mxCell id="BR0gpg7OfZkvVmH7d89o-4" value="&lt;div&gt;envoi au CNRGH, &lt;br&gt;&lt;/div&gt;&lt;div&gt;congelÃ©, carboglace&lt;/div&gt;" style="text;html=1;align=center;verticalAlign=middle;resizable=0;points=[];autosize=1;strokeColor=none;" vertex="1" parent="1">
          <mxGeometry x="110" y="70" width="120" height="30" as="geometry" />
        </mxCell>
        <mxCell id="BR0gpg7OfZkvVmH7d89o-10" style="edgeStyle=orthogonalEdgeStyle;rounded=0;orthogonalLoop=1;jettySize=auto;html=1;exitX=0.5;exitY=1;exitDx=0;exitDy=0;" edge="1" parent="1" source="BR0gpg7OfZkvVmH7d89o-8">
          <mxGeometry relative="1" as="geometry">
            <mxPoint x="300" y="130" as="targetPoint" />
          </mxGeometry>
        </mxCell>
        <mxCell id="BR0gpg7OfZkvVmH7d89o-8" value="&lt;div&gt;Test manip HIC sur 2 culots test&lt;/div&gt;&lt;div&gt;Optimisation du protocole&lt;br&gt;&lt;/div&gt;" style="rounded=0;whiteSpace=wrap;html=1;" vertex="1" parent="1">
          <mxGeometry x="250" y="10" width="170" height="60" as="geometry" />
        </mxCell>
        <mxCell id="BR0gpg7OfZkvVmH7d89o-100" style="edgeStyle=orthogonalEdgeStyle;rounded=0;orthogonalLoop=1;jettySize=auto;html=1;fontColor=#FF0000;" edge="1" parent="1" source="BR0gpg7OfZkvVmH7d89o-11">
          <mxGeometry relative="1" as="geometry">
            <mxPoint x="230" y="220" as="targetPoint" />
          </mxGeometry>
        </mxCell>
        <mxCell id="BR0gpg7OfZkvVmH7d89o-102" style="edgeStyle=orthogonalEdgeStyle;rounded=0;orthogonalLoop=1;jettySize=auto;html=1;exitX=1;exitY=0.5;exitDx=0;exitDy=0;fontColor=#FF0000;" edge="1" parent="1" source="BR0gpg7OfZkvVmH7d89o-11">
          <mxGeometry relative="1" as="geometry">
            <mxPoint x="355" y="220" as="targetPoint" />
          </mxGeometry>
        </mxCell>
        <mxCell id="BR0gpg7OfZkvVmH7d89o-11" value="&lt;div&gt;CQ &lt;br&gt;&lt;/div&gt;&lt;div&gt;sur Miseq&lt;/div&gt;" style="rhombus;whiteSpace=wrap;html=1;" vertex="1" parent="1">
          <mxGeometry x="255" y="130" width="80" height="80" as="geometry" />
        </mxCell>
        <mxCell id="BR0gpg7OfZkvVmH7d89o-13" style="edgeStyle=orthogonalEdgeStyle;rounded=0;orthogonalLoop=1;jettySize=auto;html=1;exitX=0.5;exitY=1;exitDx=0;exitDy=0;" edge="1" parent="1" source="BR0gpg7OfZkvVmH7d89o-11" target="BR0gpg7OfZkvVmH7d89o-11">
          <mxGeometry relative="1" as="geometry" />
        </mxCell>
        <mxCell id="BR0gpg7OfZkvVmH7d89o-20" value="redo" style="text;html=1;align=center;verticalAlign=middle;resizable=0;points=[];autosize=1;strokeColor=none;" vertex="1" parent="1">
          <mxGeometry x="440" y="50" width="40" height="20" as="geometry" />
        </mxCell>
        <mxCell id="BR0gpg7OfZkvVmH7d89o-104" style="edgeStyle=orthogonalEdgeStyle;rounded=0;orthogonalLoop=1;jettySize=auto;html=1;exitX=0;exitY=0.5;exitDx=0;exitDy=0;fontColor=#FF0000;" edge="1" parent="1" source="BR0gpg7OfZkvVmH7d89o-22">
          <mxGeometry relative="1" as="geometry">
            <mxPoint x="140" y="340" as="targetPoint" />
            <Array as="points">
              <mxPoint x="140" y="305" />
            </Array>
          </mxGeometry>
        </mxCell>
        <mxCell id="BR0gpg7OfZkvVmH7d89o-22" value="&lt;div&gt;manip HIC sur&amp;nbsp; l&#39;ensemble des culots cellulaires , n=30&lt;br&gt;&lt;/div&gt;" style="rounded=0;whiteSpace=wrap;html=1;" vertex="1" parent="1">
          <mxGeometry x="160" y="280" width="170" height="50" as="geometry" />
        </mxCell>
        <mxCell id="BR0gpg7OfZkvVmH7d89o-110" style="edgeStyle=orthogonalEdgeStyle;rounded=0;orthogonalLoop=1;jettySize=auto;html=1;fontColor=#FF0000;" edge="1" parent="1" source="BR0gpg7OfZkvVmH7d89o-24">
          <mxGeometry relative="1" as="geometry">
            <mxPoint x="110" y="500" as="targetPoint" />
          </mxGeometry>
        </mxCell>
        <mxCell id="BR0gpg7OfZkvVmH7d89o-111" style="edgeStyle=orthogonalEdgeStyle;rounded=0;orthogonalLoop=1;jettySize=auto;html=1;exitX=0.5;exitY=1;exitDx=0;exitDy=0;fontColor=#FF0000;" edge="1" parent="1" source="BR0gpg7OfZkvVmH7d89o-24">
          <mxGeometry relative="1" as="geometry">
            <mxPoint x="180" y="500" as="targetPoint" />
          </mxGeometry>
        </mxCell>
        <mxCell id="BR0gpg7OfZkvVmH7d89o-24" value="&lt;div&gt;CQ &lt;br&gt;&lt;/div&gt;&lt;div&gt;sur Miseq&lt;/div&gt;" style="rhombus;whiteSpace=wrap;html=1;" vertex="1" parent="1">
          <mxGeometry x="110" y="385" width="70" height="65" as="geometry" />
        </mxCell>
        <mxCell id="BR0gpg7OfZkvVmH7d89o-28" value="Stop point" style="text;html=1;align=center;verticalAlign=middle;resizable=0;points=[];autosize=1;strokeColor=none;" vertex="1" parent="1">
          <mxGeometry x="75" y="555" width="70" height="20" as="geometry" />
        </mxCell>
        <mxCell id="BR0gpg7OfZkvVmH7d89o-116" style="edgeStyle=orthogonalEdgeStyle;rounded=0;orthogonalLoop=1;jettySize=auto;html=1;entryX=0.408;entryY=-0.033;entryDx=0;entryDy=0;entryPerimeter=0;fontColor=#FF0000;" edge="1" parent="1" source="BR0gpg7OfZkvVmH7d89o-32" target="BR0gpg7OfZkvVmH7d89o-44">
          <mxGeometry relative="1" as="geometry" />
        </mxCell>
        <mxCell id="BR0gpg7OfZkvVmH7d89o-32" value="High read depth Sequencing&amp;nbsp; on Novaseq" style="shape=hexagon;perimeter=hexagonPerimeter2;whiteSpace=wrap;html=1;fixedSize=1;" vertex="1" parent="1">
          <mxGeometry x="250" y="497.25" width="120" height="45.5" as="geometry" />
        </mxCell>
        <mxCell id="BR0gpg7OfZkvVmH7d89o-34" value="1- 2 million PE reads" style="text;html=1;align=center;verticalAlign=middle;resizable=0;points=[];autosize=1;strokeColor=none;" vertex="1" parent="1">
          <mxGeometry x="170" y="385" width="120" height="20" as="geometry" />
        </mxCell>
        <mxCell id="BR0gpg7OfZkvVmH7d89o-35" value="1- 2 million PE reads" style="text;html=1;align=center;verticalAlign=middle;resizable=0;points=[];autosize=1;strokeColor=none;" vertex="1" parent="1">
          <mxGeometry x="155" y="130" width="120" height="20" as="geometry" />
        </mxCell>
        <mxCell id="BR0gpg7OfZkvVmH7d89o-36" value="200-300 million PE reads/library" style="text;html=1;align=center;verticalAlign=middle;resizable=0;points=[];autosize=1;strokeColor=none;" vertex="1" parent="1">
          <mxGeometry x="240" y="477.25" width="180" height="20" as="geometry" />
        </mxCell>
        <mxCell id="BR0gpg7OfZkvVmH7d89o-107" style="edgeStyle=orthogonalEdgeStyle;rounded=0;orthogonalLoop=1;jettySize=auto;html=1;fontColor=#FF0000;" edge="1" parent="1" source="BR0gpg7OfZkvVmH7d89o-40">
          <mxGeometry relative="1" as="geometry">
            <mxPoint x="145" y="380" as="targetPoint" />
          </mxGeometry>
        </mxCell>
        <mxCell id="BR0gpg7OfZkvVmH7d89o-40" value="3 libraries / HIC " style="text;html=1;align=center;verticalAlign=middle;resizable=0;points=[];autosize=1;strokeColor=none;" vertex="1" parent="1">
          <mxGeometry x="100" y="340" width="90" height="20" as="geometry" />
        </mxCell>
        <mxCell id="BR0gpg7OfZkvVmH7d89o-121" style="edgeStyle=orthogonalEdgeStyle;rounded=0;orthogonalLoop=1;jettySize=auto;html=1;fontColor=#FF0000;" edge="1" parent="1" source="BR0gpg7OfZkvVmH7d89o-44">
          <mxGeometry relative="1" as="geometry">
            <mxPoint x="320" y="630" as="targetPoint" />
          </mxGeometry>
        </mxCell>
        <mxCell id="BR0gpg7OfZkvVmH7d89o-44" value="FASTQ" style="rounded=0;whiteSpace=wrap;html=1;" vertex="1" parent="1">
          <mxGeometry x="270" y="575" width="100" height="20" as="geometry" />
        </mxCell>
        <mxCell id="BR0gpg7OfZkvVmH7d89o-50" value="if Q30&amp;gt;80%" style="text;html=1;align=center;verticalAlign=middle;resizable=0;points=[];autosize=1;strokeColor=none;" vertex="1" parent="1">
          <mxGeometry x="317.5" y="604" width="80" height="20" as="geometry" />
        </mxCell>
        <mxCell id="BR0gpg7OfZkvVmH7d89o-123" style="edgeStyle=orthogonalEdgeStyle;rounded=0;orthogonalLoop=1;jettySize=auto;html=1;fontColor=#FF0000;" edge="1" parent="1">
          <mxGeometry relative="1" as="geometry">
            <mxPoint x="321" y="720" as="targetPoint" />
            <mxPoint x="321" y="675" as="sourcePoint" />
          </mxGeometry>
        </mxCell>
        <mxCell id="BR0gpg7OfZkvVmH7d89o-51" value="merge fastq (that correspond to the 3 libraries = technical replicate" style="rounded=0;whiteSpace=wrap;html=1;" vertex="1" parent="1">
          <mxGeometry x="235" y="635" width="190" height="40" as="geometry" />
        </mxCell>
        <mxCell id="BR0gpg7OfZkvVmH7d89o-126" style="edgeStyle=orthogonalEdgeStyle;rounded=0;orthogonalLoop=1;jettySize=auto;html=1;fontColor=#FF0000;" edge="1" parent="1" source="BR0gpg7OfZkvVmH7d89o-55">
          <mxGeometry relative="1" as="geometry">
            <mxPoint x="450" y="830" as="targetPoint" />
          </mxGeometry>
        </mxCell>
        <mxCell id="BR0gpg7OfZkvVmH7d89o-127" style="edgeStyle=orthogonalEdgeStyle;rounded=0;orthogonalLoop=1;jettySize=auto;html=1;fontColor=#FF0000;" edge="1" parent="1" source="BR0gpg7OfZkvVmH7d89o-55">
          <mxGeometry relative="1" as="geometry">
            <mxPoint x="500" y="720" as="targetPoint" />
            <Array as="points">
              <mxPoint x="500" y="740" />
            </Array>
          </mxGeometry>
        </mxCell>
        <mxCell id="BR0gpg7OfZkvVmH7d89o-55" value="generation&amp;nbsp; .validPairs" style="rounded=0;whiteSpace=wrap;html=1;" vertex="1" parent="1">
          <mxGeometry x="243.21" y="725" width="156.79" height="30" as="geometry" />
        </mxCell>
        <mxCell id="BR0gpg7OfZkvVmH7d89o-64" value="Hg38" style="text;html=1;align=center;verticalAlign=middle;resizable=0;points=[];autosize=1;strokeColor=none;" vertex="1" parent="1">
          <mxGeometry x="260" y="705" width="40" height="20" as="geometry" />
        </mxCell>
        <mxCell id="BR0gpg7OfZkvVmH7d89o-65" value="with DpnII enzyme" style="text;html=1;align=center;verticalAlign=middle;resizable=0;points=[];autosize=1;strokeColor=none;" vertex="1" parent="1">
          <mxGeometry x="240" y="330" width="110" height="20" as="geometry" />
        </mxCell>
        <mxCell id="BR0gpg7OfZkvVmH7d89o-112" style="edgeStyle=orthogonalEdgeStyle;rounded=0;orthogonalLoop=1;jettySize=auto;html=1;fontColor=#FF0000;" edge="1" parent="1" source="BR0gpg7OfZkvVmH7d89o-67">
          <mxGeometry relative="1" as="geometry">
            <mxPoint x="110" y="550" as="targetPoint" />
          </mxGeometry>
        </mxCell>
        <mxCell id="BR0gpg7OfZkvVmH7d89o-67" value="" style="verticalLabelPosition=bottom;verticalAlign=top;html=1;shape=mxgraph.basic.x;labelBackgroundColor=#FF0000;fontColor=#ffffff;fillColor=#e51400;strokeColor=#B20000;" vertex="1" parent="1">
          <mxGeometry x="100" y="510" width="20" height="20" as="geometry" />
        </mxCell>
        <mxCell id="BR0gpg7OfZkvVmH7d89o-113" style="edgeStyle=orthogonalEdgeStyle;rounded=0;orthogonalLoop=1;jettySize=auto;html=1;fontColor=#FF0000;" edge="1" parent="1" source="BR0gpg7OfZkvVmH7d89o-72">
          <mxGeometry relative="1" as="geometry">
            <mxPoint x="240" y="520" as="targetPoint" />
          </mxGeometry>
        </mxCell>
        <mxCell id="BR0gpg7OfZkvVmH7d89o-72" value="" style="verticalLabelPosition=bottom;verticalAlign=top;html=1;shape=mxgraph.basic.tick;labelBackgroundColor=#FF0000;gradientColor=#97d077;fillColor=#d5e8d4;strokeColor=#82b366;" vertex="1" parent="1">
          <mxGeometry x="170" y="505" width="30" height="30" as="geometry" />
        </mxCell>
        <mxCell id="BR0gpg7OfZkvVmH7d89o-101" style="edgeStyle=orthogonalEdgeStyle;rounded=0;orthogonalLoop=1;jettySize=auto;html=1;fontColor=#FF0000;" edge="1" parent="1" source="BR0gpg7OfZkvVmH7d89o-77">
          <mxGeometry relative="1" as="geometry">
            <mxPoint x="235" y="280" as="targetPoint" />
          </mxGeometry>
        </mxCell>
        <mxCell id="BR0gpg7OfZkvVmH7d89o-77" value="" style="verticalLabelPosition=bottom;verticalAlign=top;html=1;shape=mxgraph.basic.tick;labelBackgroundColor=#FF0000;gradientColor=#97d077;fillColor=#d5e8d4;strokeColor=#82b366;" vertex="1" parent="1">
          <mxGeometry x="220" y="220" width="30" height="30" as="geometry" />
        </mxCell>
        <mxCell id="BR0gpg7OfZkvVmH7d89o-103" style="edgeStyle=orthogonalEdgeStyle;rounded=0;orthogonalLoop=1;jettySize=auto;html=1;entryX=1;entryY=0.5;entryDx=0;entryDy=0;fontColor=#FF0000;" edge="1" parent="1" source="BR0gpg7OfZkvVmH7d89o-78" target="BR0gpg7OfZkvVmH7d89o-8">
          <mxGeometry relative="1" as="geometry" />
        </mxCell>
        <mxCell id="BR0gpg7OfZkvVmH7d89o-78" value="" style="verticalLabelPosition=bottom;verticalAlign=top;html=1;shape=mxgraph.basic.x;labelBackgroundColor=#FF0000;fontColor=#ffffff;fillColor=#e51400;strokeColor=#B20000;" vertex="1" parent="1">
          <mxGeometry x="345" y="225" width="25" height="20" as="geometry" />
        </mxCell>
        <mxCell id="BR0gpg7OfZkvVmH7d89o-81" value="generation .matrix" style="rounded=0;whiteSpace=wrap;html=1;" vertex="1" parent="1">
          <mxGeometry x="243.21" y="765" width="156.79" height="30" as="geometry" />
        </mxCell>
        <mxCell id="BR0gpg7OfZkvVmH7d89o-82" value="raw matrix" style="text;html=1;align=center;verticalAlign=middle;resizable=0;points=[];autosize=1;strokeColor=none;fontColor=#FF0000;" vertex="1" parent="1">
          <mxGeometry x="250" y="794.5" width="70" height="20" as="geometry" />
        </mxCell>
        <mxCell id="BR0gpg7OfZkvVmH7d89o-83" value="iced.matrix" style="text;html=1;align=center;verticalAlign=middle;resizable=0;points=[];autosize=1;strokeColor=none;fontColor=#FF0000;" vertex="1" parent="1">
          <mxGeometry x="333.21" y="795" width="70" height="20" as="geometry" />
        </mxCell>
        <mxCell id="BR0gpg7OfZkvVmH7d89o-128" style="edgeStyle=orthogonalEdgeStyle;rounded=0;orthogonalLoop=1;jettySize=auto;html=1;exitX=0;exitY=0.5;exitDx=0;exitDy=0;fontColor=#FF0000;" edge="1" parent="1" source="BR0gpg7OfZkvVmH7d89o-85">
          <mxGeometry relative="1" as="geometry">
            <mxPoint x="320" y="865" as="targetPoint" />
          </mxGeometry>
        </mxCell>
        <mxCell id="BR0gpg7OfZkvVmH7d89o-85" value="Conversion .hic" style="rounded=0;whiteSpace=wrap;html=1;" vertex="1" parent="1">
          <mxGeometry x="380" y="850" width="110" height="20" as="geometry" />
        </mxCell>
        <mxCell id="BR0gpg7OfZkvVmH7d89o-87" value="Visualization of contact maps" style="rounded=0;whiteSpace=wrap;html=1;" vertex="1" parent="1">
          <mxGeometry x="155" y="861" width="160" height="20" as="geometry" />
        </mxCell>
        <mxCell id="BR0gpg7OfZkvVmH7d89o-89" value="" style="shape=image;html=1;verticalLabelPosition=bottom;verticalAlign=top;imageAspect=1;aspect=fixed;image=img/clipart/Gear_128x128.png;labelBackgroundColor=#33FFFF;" vertex="1" parent="1">
          <mxGeometry x="33.57" y="444.5" width="26.43" height="31" as="geometry" />
        </mxCell>
        <mxCell id="BR0gpg7OfZkvVmH7d89o-136" style="edgeStyle=orthogonalEdgeStyle;rounded=0;orthogonalLoop=1;jettySize=auto;html=1;fontColor=#FF0000;" edge="1" parent="1" source="BR0gpg7OfZkvVmH7d89o-92">
          <mxGeometry relative="1" as="geometry">
            <mxPoint x="490" y="640" as="targetPoint" />
          </mxGeometry>
        </mxCell>
        <mxCell id="BR0gpg7OfZkvVmH7d89o-144" style="edgeStyle=orthogonalEdgeStyle;rounded=0;orthogonalLoop=1;jettySize=auto;html=1;exitX=1;exitY=0.5;exitDx=0;exitDy=0;fontColor=#000000;" edge="1" parent="1" source="BR0gpg7OfZkvVmH7d89o-92">
          <mxGeometry relative="1" as="geometry">
            <mxPoint x="650" y="849.9999999999998" as="targetPoint" />
          </mxGeometry>
        </mxCell>
        <mxCell id="BR0gpg7OfZkvVmH7d89o-178" style="edgeStyle=orthogonalEdgeStyle;rounded=0;orthogonalLoop=1;jettySize=auto;html=1;fontColor=#000000;" edge="1" parent="1" source="BR0gpg7OfZkvVmH7d89o-92">
          <mxGeometry relative="1" as="geometry">
            <mxPoint x="660" y="400" as="targetPoint" />
            <Array as="points">
              <mxPoint x="515" y="690" />
              <mxPoint x="660" y="690" />
            </Array>
          </mxGeometry>
        </mxCell>
        <mxCell id="BR0gpg7OfZkvVmH7d89o-179" style="edgeStyle=orthogonalEdgeStyle;rounded=0;orthogonalLoop=1;jettySize=auto;html=1;fontColor=#000000;" edge="1" parent="1" source="BR0gpg7OfZkvVmH7d89o-92">
          <mxGeometry relative="1" as="geometry">
            <mxPoint x="730" y="680" as="targetPoint" />
          </mxGeometry>
        </mxCell>
        <mxCell id="BR0gpg7OfZkvVmH7d89o-92" value="Conversion .cool/mcool" style="rounded=0;whiteSpace=wrap;html=1;" vertex="1" parent="1">
          <mxGeometry x="445" y="690.5" width="225" height="20" as="geometry" />
        </mxCell>
        <mxCell id="BR0gpg7OfZkvVmH7d89o-108" value="HIC-Pro" style="text;html=1;align=center;verticalAlign=middle;resizable=0;points=[];autosize=1;strokeColor=#d6b656;gradientColor=#ffd966;fillColor=#fff2cc;" vertex="1" parent="1">
          <mxGeometry x="70" y="450" width="60" height="20" as="geometry" />
        </mxCell>
        <mxCell id="BR0gpg7OfZkvVmH7d89o-122" value="" style="verticalLabelPosition=bottom;verticalAlign=top;html=1;shape=mxgraph.basic.tick;labelBackgroundColor=#FF0000;gradientColor=#97d077;fillColor=#d5e8d4;strokeColor=#82b366;" vertex="1" parent="1">
          <mxGeometry x="345" y="620" width="20" height="15" as="geometry" />
        </mxCell>
        <mxCell id="BR0gpg7OfZkvVmH7d89o-124" value="HIC-Pro" style="text;html=1;align=center;verticalAlign=middle;resizable=0;points=[];autosize=1;strokeColor=#d6b656;gradientColor=#ffd966;fillColor=#fff2cc;" vertex="1" parent="1">
          <mxGeometry x="250" y="685" width="60" height="20" as="geometry" />
        </mxCell>
        <mxCell id="BR0gpg7OfZkvVmH7d89o-125" value="" style="shape=image;html=1;verticalLabelPosition=bottom;verticalAlign=top;imageAspect=1;aspect=fixed;image=img/clipart/Gear_128x128.png;labelBackgroundColor=#33FFFF;" vertex="1" parent="1">
          <mxGeometry x="216.78" y="679.5" width="26.43" height="31" as="geometry" />
        </mxCell>
        <mxCell id="BR0gpg7OfZkvVmH7d89o-129" value="Juicebox" style="text;html=1;align=center;verticalAlign=middle;resizable=0;points=[];autosize=1;strokeColor=#d6b656;gradientColor=#ffd966;fillColor=#fff2cc;" vertex="1" parent="1">
          <mxGeometry x="190" y="815" width="60" height="20" as="geometry" />
        </mxCell>
        <mxCell id="BR0gpg7OfZkvVmH7d89o-130" value="" style="shape=image;html=1;verticalLabelPosition=bottom;verticalAlign=top;imageAspect=1;aspect=fixed;image=img/clipart/Gear_128x128.png;labelBackgroundColor=#33FFFF;" vertex="1" parent="1">
          <mxGeometry x="160" y="819" width="26.43" height="31" as="geometry" />
        </mxCell>
        <mxCell id="BR0gpg7OfZkvVmH7d89o-131" value="" style="shape=image;html=1;verticalLabelPosition=bottom;verticalAlign=top;imageAspect=1;aspect=fixed;image=img/clipart/Gear_128x128.png;labelBackgroundColor=#33FFFF;" vertex="1" parent="1">
          <mxGeometry x="490" y="740" width="26.43" height="31" as="geometry" />
        </mxCell>
        <mxCell id="BR0gpg7OfZkvVmH7d89o-133" value="&lt;div&gt;, Py script&lt;/div&gt;&lt;div&gt;hicpro2higlass &lt;br&gt;&lt;/div&gt;&lt;div&gt;&amp;amp; cooler&lt;/div&gt;" style="text;html=1;align=center;verticalAlign=middle;resizable=0;points=[];autosize=1;strokeColor=#d6b656;gradientColor=#ffd966;fillColor=#fff2cc;" vertex="1" parent="1">
          <mxGeometry x="520" y="725" width="90" height="50" as="geometry" />
        </mxCell>
        <mxCell id="BR0gpg7OfZkvVmH7d89o-134" value="&lt;div&gt;Py script&lt;/div&gt;&lt;div&gt;hicpro2juicebox&lt;br&gt;&lt;/div&gt;" style="text;html=1;align=center;verticalAlign=middle;resizable=0;points=[];autosize=1;strokeColor=#d6b656;gradientColor=#ffd966;fillColor=#fff2cc;" vertex="1" parent="1">
          <mxGeometry x="410" y="870" width="100" height="30" as="geometry" />
        </mxCell>
        <mxCell id="BR0gpg7OfZkvVmH7d89o-135" value="" style="shape=image;html=1;verticalLabelPosition=bottom;verticalAlign=top;imageAspect=1;aspect=fixed;image=img/clipart/Gear_128x128.png;labelBackgroundColor=#33FFFF;" vertex="1" parent="1">
          <mxGeometry x="380" y="870" width="26.43" height="31" as="geometry" />
        </mxCell>
        <mxCell id="BR0gpg7OfZkvVmH7d89o-147" style="edgeStyle=orthogonalEdgeStyle;rounded=0;orthogonalLoop=1;jettySize=auto;html=1;exitX=0.5;exitY=0;exitDx=0;exitDy=0;fontColor=#000000;" edge="1" parent="1" source="BR0gpg7OfZkvVmH7d89o-139">
          <mxGeometry relative="1" as="geometry">
            <mxPoint x="460" y="460" as="targetPoint" />
          </mxGeometry>
        </mxCell>
        <mxCell id="BR0gpg7OfZkvVmH7d89o-148" style="edgeStyle=orthogonalEdgeStyle;rounded=0;orthogonalLoop=1;jettySize=auto;html=1;exitX=0.5;exitY=0;exitDx=0;exitDy=0;fontColor=#000000;" edge="1" parent="1" source="BR0gpg7OfZkvVmH7d89o-139">
          <mxGeometry relative="1" as="geometry">
            <mxPoint x="580" y="530" as="targetPoint" />
          </mxGeometry>
        </mxCell>
        <mxCell id="BR0gpg7OfZkvVmH7d89o-139" value="&lt;font&gt;&lt;span&gt;&lt;font&gt;&lt;span&gt;A/B &lt;/span&gt;&lt;/font&gt;COMPARTMENTS&lt;br&gt;&lt;/span&gt;&lt;/font&gt;" style="rounded=1;whiteSpace=wrap;html=1;strokeWidth=2;fillWeight=4;hachureGap=8;hachureAngle=45;fillColor=#1ba1e2;sketch=1;labelBackgroundColor=none;fontStyle=1" vertex="1" parent="1">
          <mxGeometry x="460" y="600" width="130" height="30" as="geometry" />
        </mxCell>
        <mxCell id="BR0gpg7OfZkvVmH7d89o-160" style="edgeStyle=orthogonalEdgeStyle;rounded=0;orthogonalLoop=1;jettySize=auto;html=1;exitX=0.25;exitY=1;exitDx=0;exitDy=0;fontColor=#000000;" edge="1" parent="1" source="BR0gpg7OfZkvVmH7d89o-140">
          <mxGeometry relative="1" as="geometry">
            <mxPoint x="560" y="949.9999999999998" as="targetPoint" />
          </mxGeometry>
        </mxCell>
        <mxCell id="BR0gpg7OfZkvVmH7d89o-161" style="edgeStyle=orthogonalEdgeStyle;rounded=0;orthogonalLoop=1;jettySize=auto;html=1;exitX=0.5;exitY=1;exitDx=0;exitDy=0;fontColor=#000000;" edge="1" parent="1" source="BR0gpg7OfZkvVmH7d89o-140">
          <mxGeometry relative="1" as="geometry">
            <mxPoint x="660" y="949.9999999999998" as="targetPoint" />
          </mxGeometry>
        </mxCell>
        <mxCell id="BR0gpg7OfZkvVmH7d89o-162" style="edgeStyle=orthogonalEdgeStyle;rounded=0;orthogonalLoop=1;jettySize=auto;html=1;fontColor=#000000;" edge="1" parent="1" source="BR0gpg7OfZkvVmH7d89o-140">
          <mxGeometry relative="1" as="geometry">
            <mxPoint x="750" y="949.9999999999998" as="targetPoint" />
          </mxGeometry>
        </mxCell>
        <mxCell id="BR0gpg7OfZkvVmH7d89o-140" value="LOOPS" style="rounded=1;whiteSpace=wrap;html=1;strokeWidth=2;fillWeight=4;hachureGap=8;hachureAngle=45;fillColor=#1ba1e2;sketch=1;labelBackgroundColor=none;fontStyle=1" vertex="1" parent="1">
          <mxGeometry x="600" y="860" width="100" height="25" as="geometry" />
        </mxCell>
        <mxCell id="BR0gpg7OfZkvVmH7d89o-158" style="edgeStyle=orthogonalEdgeStyle;rounded=0;orthogonalLoop=1;jettySize=auto;html=1;exitX=0.5;exitY=0;exitDx=0;exitDy=0;fontColor=#000000;" edge="1" parent="1" source="BR0gpg7OfZkvVmH7d89o-142">
          <mxGeometry relative="1" as="geometry">
            <mxPoint x="750" y="570" as="targetPoint" />
          </mxGeometry>
        </mxCell>
        <mxCell id="BR0gpg7OfZkvVmH7d89o-142" value="TADs" style="rounded=1;whiteSpace=wrap;html=1;strokeWidth=2;fillWeight=4;hachureGap=8;hachureAngle=45;fillColor=#1ba1e2;sketch=1;labelBackgroundColor=none;fontStyle=1" vertex="1" parent="1">
          <mxGeometry x="680" y="645" width="100" height="20" as="geometry" />
        </mxCell>
        <mxCell id="BR0gpg7OfZkvVmH7d89o-155" style="edgeStyle=orthogonalEdgeStyle;rounded=0;orthogonalLoop=1;jettySize=auto;html=1;fontColor=#000000;" edge="1" parent="1" source="BR0gpg7OfZkvVmH7d89o-149">
          <mxGeometry relative="1" as="geometry">
            <mxPoint x="475" y="360" as="targetPoint" />
          </mxGeometry>
        </mxCell>
        <mxCell id="BR0gpg7OfZkvVmH7d89o-149" value="&lt;div&gt;HIC explorer&lt;/div&gt;&lt;div&gt;call compartment &lt;/div&gt;" style="text;html=1;align=center;verticalAlign=middle;resizable=0;points=[];autosize=1;strokeColor=#d6b656;gradientColor=#ffd966;fillColor=#fff2cc;" vertex="1" parent="1">
          <mxGeometry x="420" y="420" width="110" height="30" as="geometry" />
        </mxCell>
        <mxCell id="BR0gpg7OfZkvVmH7d89o-150" value="" style="shape=image;html=1;verticalLabelPosition=bottom;verticalAlign=top;imageAspect=1;aspect=fixed;image=img/clipart/Gear_128x128.png;labelBackgroundColor=#33FFFF;" vertex="1" parent="1">
          <mxGeometry x="383.57" y="422" width="26.43" height="31" as="geometry" />
        </mxCell>
        <mxCell id="BR0gpg7OfZkvVmH7d89o-156" style="edgeStyle=orthogonalEdgeStyle;rounded=0;orthogonalLoop=1;jettySize=auto;html=1;fontColor=#000000;" edge="1" parent="1" source="BR0gpg7OfZkvVmH7d89o-153">
          <mxGeometry relative="1" as="geometry">
            <mxPoint x="520" y="360" as="targetPoint" />
            <Array as="points">
              <mxPoint x="590" y="360" />
            </Array>
          </mxGeometry>
        </mxCell>
        <mxCell id="BR0gpg7OfZkvVmH7d89o-153" value="&lt;div&gt;cooltools&lt;/div&gt;&lt;div&gt;call compartment&lt;br&gt;&lt;/div&gt;" style="text;html=1;align=center;verticalAlign=middle;resizable=0;points=[];autosize=1;strokeColor=#d6b656;gradientColor=#ffd966;fillColor=#fff2cc;" vertex="1" parent="1">
          <mxGeometry x="520" y="490" width="110" height="30" as="geometry" />
        </mxCell>
        <mxCell id="BR0gpg7OfZkvVmH7d89o-154" value="" style="shape=image;html=1;verticalLabelPosition=bottom;verticalAlign=top;imageAspect=1;aspect=fixed;image=img/clipart/Gear_128x128.png;labelBackgroundColor=#33FFFF;" vertex="1" parent="1">
          <mxGeometry x="490" y="490" width="26.43" height="31" as="geometry" />
        </mxCell>
        <mxCell id="BR0gpg7OfZkvVmH7d89o-157" value="Differential analysis" style="text;html=1;align=center;verticalAlign=middle;resizable=0;points=[];autosize=1;strokeColor=none;fontColor=#000000;" vertex="1" parent="1">
          <mxGeometry x="403.21" y="340" width="120" height="20" as="geometry" />
        </mxCell>
        <mxCell id="BR0gpg7OfZkvVmH7d89o-159" value="&lt;div&gt;cooltools&lt;/div&gt;&lt;div&gt;&lt;br&gt;&lt;/div&gt;" style="text;html=1;align=center;verticalAlign=middle;resizable=0;points=[];autosize=1;strokeColor=#d6b656;gradientColor=#ffd966;fillColor=#fff2cc;" vertex="1" parent="1">
          <mxGeometry x="715" y="530" width="60" height="30" as="geometry" />
        </mxCell>
        <mxCell id="BR0gpg7OfZkvVmH7d89o-174" style="edgeStyle=orthogonalEdgeStyle;rounded=0;orthogonalLoop=1;jettySize=auto;html=1;fontColor=#000000;" edge="1" parent="1" source="BR0gpg7OfZkvVmH7d89o-163">
          <mxGeometry relative="1" as="geometry">
            <mxPoint x="590" y="1040" as="targetPoint" />
          </mxGeometry>
        </mxCell>
        <mxCell id="BR0gpg7OfZkvVmH7d89o-163" value="&lt;div&gt;cooltools&lt;/div&gt;&lt;div&gt;call dots&lt;br&gt;&lt;/div&gt;" style="text;html=1;align=center;verticalAlign=middle;resizable=0;points=[];autosize=1;strokeColor=#d6b656;gradientColor=#ffd966;fillColor=#fff2cc;" vertex="1" parent="1">
          <mxGeometry x="530" y="960" width="60" height="30" as="geometry" />
        </mxCell>
        <mxCell id="BR0gpg7OfZkvVmH7d89o-175" style="edgeStyle=orthogonalEdgeStyle;rounded=0;orthogonalLoop=1;jettySize=auto;html=1;fontColor=#000000;" edge="1" parent="1" source="BR0gpg7OfZkvVmH7d89o-164">
          <mxGeometry relative="1" as="geometry">
            <mxPoint x="660" y="1020" as="targetPoint" />
          </mxGeometry>
        </mxCell>
        <mxCell id="BR0gpg7OfZkvVmH7d89o-164" value="chromosight" style="text;html=1;align=center;verticalAlign=middle;resizable=0;points=[];autosize=1;strokeColor=#d6b656;gradientColor=#ffd966;fillColor=#fff2cc;" vertex="1" parent="1">
          <mxGeometry x="620" y="965" width="80" height="20" as="geometry" />
        </mxCell>
        <mxCell id="BR0gpg7OfZkvVmH7d89o-176" style="edgeStyle=orthogonalEdgeStyle;rounded=0;orthogonalLoop=1;jettySize=auto;html=1;fontColor=#000000;" edge="1" parent="1" source="BR0gpg7OfZkvVmH7d89o-165">
          <mxGeometry relative="1" as="geometry">
            <mxPoint x="740" y="1030" as="targetPoint" />
          </mxGeometry>
        </mxCell>
        <mxCell id="BR0gpg7OfZkvVmH7d89o-165" value="&lt;div&gt;HIC-explorer&lt;/div&gt;&lt;div&gt;&lt;a class=&quot;reference internal&quot; href=&quot;https://hicexplorer.readthedocs.io/en/latest/content/tools/hicDetectLoops.html&quot;&gt;hicDetectLoops&lt;/a&gt;&lt;/div&gt;" style="text;html=1;align=center;verticalAlign=middle;resizable=0;points=[];autosize=1;strokeColor=#d6b656;gradientColor=#ffd966;fillColor=#fff2cc;" vertex="1" parent="1">
          <mxGeometry x="720" y="960" width="100" height="30" as="geometry" />
        </mxCell>
        <mxCell id="BR0gpg7OfZkvVmH7d89o-166" value="" style="shape=image;html=1;verticalLabelPosition=bottom;verticalAlign=top;imageAspect=1;aspect=fixed;image=img/clipart/Gear_128x128.png;labelBackgroundColor=#33FFFF;" vertex="1" parent="1">
          <mxGeometry x="668.21" y="929" width="26.43" height="31" as="geometry" />
        </mxCell>
        <mxCell id="BR0gpg7OfZkvVmH7d89o-170" value="" style="shape=image;html=1;verticalLabelPosition=bottom;verticalAlign=top;imageAspect=1;aspect=fixed;image=img/clipart/Gear_128x128.png;labelBackgroundColor=#33FFFF;" vertex="1" parent="1">
          <mxGeometry x="773.5699999999999" y="929" width="26.43" height="31" as="geometry" />
        </mxCell>
        <mxCell id="BR0gpg7OfZkvVmH7d89o-172" value="" style="shape=image;html=1;verticalLabelPosition=bottom;verticalAlign=top;imageAspect=1;aspect=fixed;image=img/clipart/Gear_128x128.png;labelBackgroundColor=#33FFFF;" vertex="1" parent="1">
          <mxGeometry x="563.5699999999999" y="929" width="26.43" height="31" as="geometry" />
        </mxCell>
        <mxCell id="BR0gpg7OfZkvVmH7d89o-177" value="Differential analysis" style="text;html=1;align=center;verticalAlign=middle;resizable=0;points=[];autosize=1;strokeColor=none;fontColor=#000000;" vertex="1" parent="1">
          <mxGeometry x="600" y="1030" width="120" height="20" as="geometry" />
        </mxCell>
        <mxCell id="BR0gpg7OfZkvVmH7d89o-181" style="edgeStyle=orthogonalEdgeStyle;rounded=0;orthogonalLoop=1;jettySize=auto;html=1;fontColor=#000000;" edge="1" parent="1" source="BR0gpg7OfZkvVmH7d89o-180">
          <mxGeometry relative="1" as="geometry">
            <mxPoint x="708.5699999999999" y="300" as="targetPoint" />
          </mxGeometry>
        </mxCell>
        <mxCell id="BR0gpg7OfZkvVmH7d89o-180" value="contact matrices comparison" style="rounded=1;whiteSpace=wrap;html=1;strokeWidth=2;fillWeight=4;hachureGap=8;hachureAngle=45;fillColor=#1ba1e2;sketch=1;labelBackgroundColor=none;fontStyle=1" vertex="1" parent="1">
          <mxGeometry x="643.5699999999999" y="360" width="130" height="30" as="geometry" />
        </mxCell>
        <mxCell id="BR0gpg7OfZkvVmH7d89o-182" value="ACCOST" style="text;html=1;align=center;verticalAlign=middle;resizable=0;points=[];autosize=1;strokeColor=#d6b656;gradientColor=#ffd966;fillColor=#fff2cc;" vertex="1" parent="1">
          <mxGeometry x="673.5699999999999" y="265" width="70" height="20" as="geometry" />
        </mxCell>
        <mxCell id="BR0gpg7OfZkvVmH7d89o-183" value="" style="shape=image;html=1;verticalLabelPosition=bottom;verticalAlign=top;imageAspect=1;aspect=fixed;image=img/clipart/Gear_128x128.png;labelBackgroundColor=#33FFFF;" vertex="1" parent="1">
          <mxGeometry x="753.5699999999999" y="259.5" width="26.43" height="31" as="geometry" />
        </mxCell>
        <mxCell id="BR0gpg7OfZkvVmH7d89o-185" value="pyGenome tracks" style="text;html=1;align=center;verticalAlign=middle;resizable=0;points=[];autosize=1;strokeColor=#d6b656;gradientColor=#ffd966;fillColor=#fff2cc;" vertex="1" parent="1">
          <mxGeometry x="185" y="838" width="110" height="20" as="geometry" />
        </mxCell>
      </root>
    </mxGraphModel>
  </diagram>
</mxfile>
